<?xml version="1.0" standalone="no"?>
<!DOCTYPE svg PUBLIC "-//W3C//DTD SVG 20010904//EN"
 "http://www.w3.org/TR/2001/REC-SVG-20010904/DTD/svg10.dtd">
<svg version="1.0" xmlns="http://www.w3.org/2000/svg"
 width="360.000000pt" height="360.000000pt" viewBox="0 0 360.000000 360.000000"
 preserveAspectRatio="xMidYMid meet">
<metadata>
Created by potrace 1.14, written by Peter Selinger 2001-2017
</metadata>
<g transform="translate(0.000000,360.000000) scale(0.100000,-0.100000)"
fill="#000000" stroke="none">
<path d="M1770 2642 c0 -6 -15 -8 -34 -5 -41 5 -54 -12 -52 -70 2 -39 -5 -49
-36 -54 -23 -4 -30 11 -32 62 -1 24 -5 48 -10 52 -12 12 -206 11 -214 -1 -12
-19 -9 -396 2 -397 12 -2 411 -9 436 -9 87 3 110 -11 84 -48 -13 -18 -19 -21
-30 -11 -8 6 -14 8 -14 3 0 -5 -45 -9 -100 -9 -55 0 -100 4 -100 8 0 5 -6 5
-12 1 -18 -11 -168 -11 -168 0 0 5 -5 5 -12 0 -7 -5 -25 -9 -41 -8 -26 1 -26
0 24 -53 29 -30 48 -58 43 -61 -5 -4 -9 -16 -10 -27 0 -11 -4 -40 -7 -65 -4
-25 -9 -67 -12 -95 -3 -27 -7 -59 -9 -70 -7 -36 -20 -150 -19 -167 0 -10 -2
-18 -6 -18 -3 0 -6 -15 -7 -33 -1 -36 -12 -131 -23 -192 -3 -22 -6 -56 -6 -75
l0 -34 397 -1 398 0 -5 55 c-2 30 -7 66 -9 79 -3 13 -8 49 -11 80 -4 31 -9 67
-11 81 -6 31 -13 85 -16 127 -2 18 -5 33 -8 33 -3 0 -6 17 -7 38 -3 53 -10
127 -13 127 -3 0 -7 35 -13 109 -3 32 -8 60 -10 62 -2 3 23 33 58 67 l61 62 0
218 c-1 162 -5 220 -14 226 -16 9 -199 8 -209 -3 -4 -4 -8 -28 -9 -54 -1 -26
-2 -49 -3 -52 -1 -7 -61 -7 -62 0 0 3 -2 26 -3 52 -1 26 -5 51 -10 55 -4 4
-31 8 -59 8 -29 1 -58 4 -65 9 -6 4 -12 3 -12 -2z"/>
<path d="M1497 1204 c-2 -3 -47 -7 -98 -9 -55 -1 -109 -9 -129 -18 -37 -16
-80 -49 -80 -62 0 -4 -7 -13 -15 -19 -8 -6 -16 -22 -19 -36 -3 -14 -7 -35 -10
-47 -11 -50 -22 -49 655 -47 349 1 637 2 640 3 19 3 11 105 -9 121 -4 3 -12
14 -18 24 -6 11 -19 24 -30 30 -10 6 -21 14 -24 18 -21 27 -78 31 -451 33
-212 1 -390 4 -396 8 -5 4 -13 4 -16 1z"/>
</g>
</svg>
